<mxfile host="app.diagrams.net" modified="2021-12-17T09:40:16.708Z" agent="5.0 (X11; Linux x86_64) AppleWebKit/537.36 (KHTML, like Gecko) Chrome/96.0.4664.93 Safari/537.36" etag="f8ZRTv0MbkyrvJwAIbQj" version="15.9.6" type="github">
  <diagram id="lQ0a94lmdzaRWGr032du" name="Page-1">
    <mxGraphModel dx="1350" dy="1942" grid="1" gridSize="10" guides="1" tooltips="1" connect="1" arrows="1" fold="1" page="1" pageScale="1" pageWidth="827" pageHeight="1169" math="0" shadow="0">
      <root>
        <mxCell id="0" />
        <mxCell id="1" parent="0" />
        <mxCell id="cyPY-RiiTBD_quAvL_1w-2" value="" style="rounded=0;whiteSpace=wrap;html=1;direction=south;" parent="1" vertex="1">
          <mxGeometry x="80" y="-1080" width="620" height="1149" as="geometry" />
        </mxCell>
        <mxCell id="cyPY-RiiTBD_quAvL_1w-3" value="&lt;font style=&quot;font-size: 24px&quot;&gt;&lt;b&gt;Bibliothéque&lt;/b&gt;&lt;/font&gt;" style="text;html=1;align=center;verticalAlign=middle;resizable=0;points=[];autosize=1;strokeColor=none;fillColor=none;" parent="1" vertex="1">
          <mxGeometry x="320" y="-1112" width="160" height="20" as="geometry" />
        </mxCell>
        <mxCell id="BAWyOKDqcm1cY8Z2Vvxt-1" value="usager" style="shape=umlActor;verticalLabelPosition=bottom;verticalAlign=top;html=1;outlineConnect=0;" parent="1" vertex="1">
          <mxGeometry x="33" y="-860" width="30" height="60" as="geometry" />
        </mxCell>
        <mxCell id="3aq6WHKHXTk7e97wV0Vl-1" value="Personnel" style="shape=umlActor;verticalLabelPosition=bottom;verticalAlign=top;html=1;" parent="1" vertex="1">
          <mxGeometry x="760" y="-1012" width="30" height="60" as="geometry" />
        </mxCell>
        <mxCell id="3aq6WHKHXTk7e97wV0Vl-2" value="bénévole" style="shape=umlActor;verticalLabelPosition=bottom;verticalAlign=top;html=1;" parent="1" vertex="1">
          <mxGeometry x="760" y="-800" width="30" height="60" as="geometry" />
        </mxCell>
        <mxCell id="3aq6WHKHXTk7e97wV0Vl-21" value="inscrit" style="endArrow=open;endSize=12;dashed=1;html=1;rounded=0;exitX=0.367;exitY=0.3;exitDx=0;exitDy=0;exitPerimeter=0;" parent="1" source="3aq6WHKHXTk7e97wV0Vl-1" edge="1" target="pSuiWLKc2Pd21CItgWu_-3">
          <mxGeometry width="160" relative="1" as="geometry">
            <mxPoint x="710" y="-990" as="sourcePoint" />
            <mxPoint x="534" y="-918.3500620277433" as="targetPoint" />
          </mxGeometry>
        </mxCell>
        <mxCell id="3aq6WHKHXTk7e97wV0Vl-22" value="creer une carte" style="endArrow=open;endSize=12;dashed=1;html=1;rounded=0;" parent="1" target="pSuiWLKc2Pd21CItgWu_-2" edge="1" source="pSuiWLKc2Pd21CItgWu_-3">
          <mxGeometry width="160" relative="1" as="geometry">
            <mxPoint x="536.04" y="-926.68" as="sourcePoint" />
            <mxPoint x="479.9545136459062" y="-1011" as="targetPoint" />
          </mxGeometry>
        </mxCell>
        <mxCell id="3aq6WHKHXTk7e97wV0Vl-25" value="paye la cotisation" style="endArrow=open;endSize=12;dashed=1;html=1;rounded=0;" parent="1" edge="1">
          <mxGeometry width="160" relative="1" as="geometry">
            <mxPoint x="58" y="-810" as="sourcePoint" />
            <mxPoint x="248.55844155844147" y="-1011" as="targetPoint" />
          </mxGeometry>
        </mxCell>
        <mxCell id="3aq6WHKHXTk7e97wV0Vl-27" value="emprunte" style="endArrow=open;endSize=12;dashed=1;html=1;rounded=0;exitX=0;exitY=1;exitDx=0;exitDy=0;exitPerimeter=0;" parent="1" source="BAWyOKDqcm1cY8Z2Vvxt-1" target="pSuiWLKc2Pd21CItgWu_-8" edge="1">
          <mxGeometry width="160" relative="1" as="geometry">
            <mxPoint x="330" y="-810" as="sourcePoint" />
            <mxPoint x="490" y="-810" as="targetPoint" />
          </mxGeometry>
        </mxCell>
        <mxCell id="3aq6WHKHXTk7e97wV0Vl-29" value="caution" style="ellipse;whiteSpace=wrap;html=1;shadow=0;" parent="1" vertex="1">
          <mxGeometry x="550" y="-710" width="120" height="80" as="geometry" />
        </mxCell>
        <mxCell id="3aq6WHKHXTk7e97wV0Vl-30" value="preter" style="endArrow=open;endSize=12;dashed=1;html=1;rounded=0;" parent="1" source="3aq6WHKHXTk7e97wV0Vl-29" target="pSuiWLKc2Pd21CItgWu_-4" edge="1">
          <mxGeometry width="160" relative="1" as="geometry">
            <mxPoint x="330" y="-710" as="sourcePoint" />
            <mxPoint x="529.2307692307693" y="-600" as="targetPoint" />
          </mxGeometry>
        </mxCell>
        <mxCell id="3aq6WHKHXTk7e97wV0Vl-33" value="payer" style="endArrow=open;endSize=12;dashed=1;html=1;rounded=0;" parent="1" source="pSuiWLKc2Pd21CItgWu_-8" target="3aq6WHKHXTk7e97wV0Vl-29" edge="1">
          <mxGeometry width="160" relative="1" as="geometry">
            <mxPoint x="330" y="-710" as="sourcePoint" />
            <mxPoint x="490" y="-710" as="targetPoint" />
          </mxGeometry>
        </mxCell>
        <mxCell id="3aq6WHKHXTk7e97wV0Vl-34" value="creer une fiche" style="endArrow=open;endSize=12;dashed=1;html=1;rounded=0;exitX=0.6;exitY=0.283;exitDx=0;exitDy=0;exitPerimeter=0;" parent="1" source="3aq6WHKHXTk7e97wV0Vl-1" target="pSuiWLKc2Pd21CItgWu_-8" edge="1">
          <mxGeometry width="160" relative="1" as="geometry">
            <mxPoint x="330" y="-760" as="sourcePoint" />
            <mxPoint x="490" y="-760" as="targetPoint" />
            <Array as="points">
              <mxPoint x="550" y="-830" />
            </Array>
          </mxGeometry>
        </mxCell>
        <mxCell id="-gihN05Qc6N_xUoZX9xH-1" value="" style="endArrow=open;endFill=1;endSize=12;html=1;rounded=0;fillColor=#d5e8d4;strokeColor=#82b366;" parent="1" source="3aq6WHKHXTk7e97wV0Vl-1" target="3aq6WHKHXTk7e97wV0Vl-2" edge="1">
          <mxGeometry width="160" relative="1" as="geometry">
            <mxPoint x="740" y="-750.5" as="sourcePoint" />
            <mxPoint x="930" y="-760" as="targetPoint" />
          </mxGeometry>
        </mxCell>
        <mxCell id="-gihN05Qc6N_xUoZX9xH-2" value="visionner" style="endArrow=open;endSize=12;dashed=1;html=1;rounded=0;" parent="1" edge="1">
          <mxGeometry width="160" relative="1" as="geometry">
            <mxPoint x="410" y="-334.5454545454545" as="sourcePoint" />
            <mxPoint x="510" y="-375.4545454545455" as="targetPoint" />
          </mxGeometry>
        </mxCell>
        <mxCell id="-gihN05Qc6N_xUoZX9xH-5" value="remettre" style="endArrow=block;endSize=16;endFill=0;html=1;rounded=0;" parent="1" source="pSuiWLKc2Pd21CItgWu_-2" edge="1">
          <mxGeometry width="160" relative="1" as="geometry">
            <mxPoint x="416.75675675675666" y="-1011" as="sourcePoint" />
            <mxPoint x="70" y="-840" as="targetPoint" />
            <Array as="points">
              <mxPoint x="300" y="-930" />
            </Array>
          </mxGeometry>
        </mxCell>
        <mxCell id="pSuiWLKc2Pd21CItgWu_-1" value="cotisation" style="ellipse;whiteSpace=wrap;html=1;" parent="1" vertex="1">
          <mxGeometry x="200" y="-1050" width="120" height="80" as="geometry" />
        </mxCell>
        <mxCell id="pSuiWLKc2Pd21CItgWu_-2" value="carte" style="ellipse;whiteSpace=wrap;html=1;" parent="1" vertex="1">
          <mxGeometry x="500" y="-1060" width="120" height="80" as="geometry" />
        </mxCell>
        <mxCell id="pSuiWLKc2Pd21CItgWu_-3" value="inscription" style="ellipse;whiteSpace=wrap;html=1;" parent="1" vertex="1">
          <mxGeometry x="400" y="-930" width="120" height="80" as="geometry" />
        </mxCell>
        <mxCell id="pSuiWLKc2Pd21CItgWu_-4" value="cd-room" style="ellipse;whiteSpace=wrap;html=1;" parent="1" vertex="1">
          <mxGeometry x="550" y="-520" width="120" height="80" as="geometry" />
        </mxCell>
        <mxCell id="pSuiWLKc2Pd21CItgWu_-5" value="document" style="ellipse;whiteSpace=wrap;html=1;" parent="1" vertex="1">
          <mxGeometry x="120" y="-460" width="120" height="80" as="geometry" />
        </mxCell>
        <mxCell id="pSuiWLKc2Pd21CItgWu_-6" value="microfilm" style="ellipse;whiteSpace=wrap;html=1;" parent="1" vertex="1">
          <mxGeometry x="290" y="-340" width="120" height="80" as="geometry" />
        </mxCell>
        <mxCell id="pSuiWLKc2Pd21CItgWu_-7" value="ecran" style="ellipse;whiteSpace=wrap;html=1;" parent="1" vertex="1">
          <mxGeometry x="500" y="-390" width="120" height="80" as="geometry" />
        </mxCell>
        <mxCell id="pSuiWLKc2Pd21CItgWu_-8" value="compter" style="ellipse;whiteSpace=wrap;html=1;" parent="1" vertex="1">
          <mxGeometry x="230" y="-699.5" width="120" height="80" as="geometry" />
        </mxCell>
        <mxCell id="odXB10FLvfwwo04Ye2HW-4" value="voir" style="endArrow=open;endSize=12;dashed=1;html=1;rounded=0;" edge="1" parent="1" source="pSuiWLKc2Pd21CItgWu_-8" target="pSuiWLKc2Pd21CItgWu_-6">
          <mxGeometry width="160" relative="1" as="geometry">
            <mxPoint x="330" y="-610" as="sourcePoint" />
            <mxPoint x="490" y="-610" as="targetPoint" />
          </mxGeometry>
        </mxCell>
        <mxCell id="odXB10FLvfwwo04Ye2HW-5" value="consulter" style="endArrow=open;endSize=12;dashed=1;html=1;rounded=0;" edge="1" parent="1" source="pSuiWLKc2Pd21CItgWu_-8" target="pSuiWLKc2Pd21CItgWu_-5">
          <mxGeometry width="160" relative="1" as="geometry">
            <mxPoint x="330" y="-610" as="sourcePoint" />
            <mxPoint x="490" y="-610" as="targetPoint" />
          </mxGeometry>
        </mxCell>
      </root>
    </mxGraphModel>
  </diagram>
</mxfile>
